<?xml version="1.0" standalone="no"?>
<!DOCTYPE svg PUBLIC "-//W3C//DTD SVG 20010904//EN"
 "http://www.w3.org/TR/2001/REC-SVG-20010904/DTD/svg10.dtd">
<svg version="1.0" xmlns="http://www.w3.org/2000/svg"
 width="320.000000pt" height="320.000000pt" viewBox="0 0 320.000000 320.000000"
 preserveAspectRatio="xMidYMid meet">
<metadata>
Created by potrace 1.11, written by Peter Selinger 2001-2013
</metadata>
<g transform="translate(0.000000,320.000000) scale(0.100000,-0.100000)"
fill="#000000" stroke="none">
<path d="M1455 2739 c-238 -17 -431 -57 -585 -121 -52 -22 -105 -41 -116 -43
-86 -12 -175 -99 -308 -300 -39 -59 -66 -91 -66 -80 -1 44 -29 -32 -39 -109
-6 -43 -13 -82 -16 -86 -3 -5 -10 -44 -15 -86 -13 -103 4 -276 36 -364 13 -36
24 -74 24 -84 0 -16 34 -82 50 -96 10 -9 154 -176 180 -209 48 -62 143 -51
223 24 27 25 52 43 57 40 5 -3 12 0 15 6 5 7 20 -1 41 -22 19 -18 46 -39 62
-45 15 -7 21 -13 15 -13 -7 -1 -13 -6 -13 -11 0 -7 6 -7 20 0 25 13 85 -14 76
-35 -2 -7 7 -26 22 -41 15 -15 22 -24 15 -21 -8 5 -8 1 0 -17 7 -13 16 -22 20
-19 5 3 6 -5 2 -17 -5 -16 -4 -20 5 -15 9 5 10 2 5 -14 -3 -12 -2 -21 3 -21 6
0 13 -35 17 -77 9 -114 12 -123 58 -166 23 -21 32 -34 20 -28 -12 6 -25 16
-28 21 -3 6 -11 10 -16 10 -34 0 76 -75 156 -106 42 -16 78 -19 232 -20 140
-1 186 -4 200 -15 11 -9 14 -10 9 -2 -4 7 -5 13 -2 13 6 0 97 -25 146 -39 19
-6 50 -11 68 -11 18 0 79 -10 135 -22 114 -24 151 -25 219 -2 82 27 127 114
82 159 -24 23 -14 124 20 208 25 60 27 76 22 145 -13 179 -20 156 70 240 l79
74 -2 81 c-1 50 3 84 9 88 7 5 -1 26 -23 60 -19 30 -33 57 -32 61 2 5 -3 8
-10 8 -17 0 -65 76 -78 124 -12 46 -5 99 17 117 13 10 17 10 25 -2 8 -12 10
-12 19 1 11 17 30 78 30 98 0 31 -51 121 -95 165 -31 32 -45 53 -41 64 4 9 0
26 -9 39 -18 28 -75 197 -75 224 0 13 -10 24 -26 30 -36 14 -42 12 -16 -6 12
-8 22 -23 22 -32 1 -9 9 -41 19 -69 10 -29 16 -53 15 -53 -7 0 -44 80 -44 95
0 8 -4 15 -10 15 -13 0 -13 -16 0 -41 6 -11 13 -35 15 -55 3 -19 12 -49 22
-67 16 -31 15 -31 -2 -17 -17 14 -18 13 -11 -5 7 -20 7 -20 -12 0 -11 11 -17
24 -14 29 2 4 8 2 13 -5 19 -30 8 16 -12 51 -14 24 -19 28 -15 12 2 -12 0 -20
-5 -16 -5 3 -10 15 -10 27 -1 16 -3 17 -6 5 -2 -9 1 -26 7 -37 8 -17 8 -21 -4
-21 -7 0 -17 12 -21 27 -5 22 -8 24 -16 12 -8 -10 -9 -8 -6 11 3 14 1 34 -4
45 -8 17 -8 16 -4 -7 3 -14 0 -28 -5 -30 -13 -4 -16 -35 -6 -68 7 -24 7 -25
-9 -5 -16 19 -16 19 -11 -10 4 -16 3 -24 0 -17 -9 20 -26 14 -19 -7 3 -11 1
-22 -5 -26 -5 -3 -10 -12 -10 -18 0 -8 3 -8 9 1 7 11 10 10 15 -3 3 -9 3 -22
-1 -27 -3 -7 -1 -8 5 -4 7 4 12 2 12 -3 0 -6 -9 -11 -20 -11 -12 0 -20 7 -20
16 0 10 -6 14 -14 11 -7 -3 -20 0 -27 6 -7 7 -6 3 4 -9 22 -27 22 -34 -3 -34
-13 0 -27 14 -40 40 -11 22 -23 40 -25 40 -3 0 1 -13 10 -30 17 -33 20 -60 5
-60 -5 0 -10 5 -10 10 0 6 -4 10 -10 10 -5 0 -7 -7 -4 -15 4 -8 1 -15 -5 -15
-6 0 -11 -5 -11 -10 0 -6 6 -10 13 -9 6 1 20 -1 29 -5 18 -8 78 13 78 27 0 5
8 6 18 3 9 -3 34 -6 55 -8 20 -1 37 -5 37 -9 0 -4 7 -10 16 -13 11 -4 15 -2
11 8 -9 24 60 12 88 -14 22 -21 25 -21 25 -6 0 16 3 15 18 -5 13 -15 21 -19
26 -11 4 7 2 12 -4 12 -6 0 -8 5 -4 11 3 6 -3 24 -14 39 -21 28 -39 80 -28 80
3 0 13 -15 22 -32 9 -18 37 -63 61 -100 40 -58 45 -71 39 -102 -4 -23 -14 -37
-27 -41 -11 -4 -34 -21 -50 -38 -30 -31 -82 -47 -93 -28 -3 5 9 8 29 7 20 -1
34 3 31 9 -2 5 -9 9 -15 7 -7 -1 -10 2 -6 8 5 8 11 8 19 1 10 -8 18 -5 32 11
13 16 14 19 2 10 -9 -7 -27 -10 -41 -7 -38 10 -104 -25 -169 -88 -53 -50 -57
-58 -52 -89 4 -22 3 -29 -4 -20 -7 11 -10 10 -16 -3 -3 -9 -6 -29 -7 -43 -1
-24 -2 -24 -11 8 -12 42 -13 44 -28 35 -8 -5 -8 -10 0 -20 8 -10 8 -15 -1 -21
-7 -4 -9 -3 -6 3 4 6 0 16 -9 23 -13 12 -14 7 -11 -36 3 -34 14 -63 36 -96 18
-27 35 -48 37 -48 3 0 -2 10 -10 22 -19 27 -22 49 -3 24 7 -9 17 -16 23 -14 6
2 23 -11 38 -29 l27 -32 -35 -7 c-20 -3 -42 -4 -50 -1 -17 7 -56 -69 -82 -159
-20 -71 -25 -197 -7 -190 7 3 25 -1 40 -9 36 -19 73 -19 99 0 12 8 25 11 29 7
3 -4 10 -7 14 -7 26 0 95 -117 106 -177 9 -49 -5 -49 -33 1 -12 21 -29 41 -37
45 -11 4 -134 -28 -141 -37 -1 -1 -5 -13 -9 -26 l-7 -23 28 20 c44 32 72 32
92 0 18 -30 12 -41 -25 -53 -18 -5 -23 -2 -23 13 0 11 -6 25 -13 31 -11 8 -16
5 -25 -15 -16 -33 -15 -43 2 -21 11 15 15 15 19 3 6 -15 -6 -29 -36 -39 -14
-6 -21 0 -30 23 -7 19 -17 28 -25 25 -10 -4 -12 0 -8 11 4 10 1 14 -6 12 -19
-7 -22 -38 -4 -38 9 0 16 -4 16 -9 0 -5 3 -16 6 -25 4 -11 1 -16 -11 -16 -23
0 -57 -19 -50 -30 3 -4 28 0 55 11 72 27 95 25 110 -10 6 -16 18 -32 27 -35 9
-4 12 -13 8 -26 -9 -29 8 -25 22 5 10 22 9 25 -8 25 -12 0 -19 7 -19 18 0 10
-7 28 -16 40 -14 21 -14 22 10 22 17 0 27 -7 32 -22 4 -13 10 -25 15 -28 7 -5
11 -17 19 -65 1 -5 5 1 9 15 5 16 14 25 29 26 12 1 22 -3 22 -8 0 -12 -54 -90
-73 -107 -13 -10 -15 -9 -10 8 3 12 1 21 -6 21 -6 0 -11 -12 -11 -26 0 -25 2
-25 40 -19 37 6 40 5 40 -17 0 -27 -10 -42 -30 -46 -8 -2 -25 -16 -38 -32 -19
-23 -30 -28 -55 -25 -18 3 -84 9 -147 16 -88 9 -125 17 -157 35 -23 13 -59 24
-80 25 -66 2 1 17 87 19 70 2 72 3 30 10 -25 4 -59 5 -77 3 -29 -5 -34 -1 -62
43 -17 26 -31 55 -31 64 0 8 -8 31 -19 50 -10 19 -22 46 -26 60 l-8 25 21 -25
c14 -16 21 -20 22 -11 0 8 -8 23 -17 34 -18 19 -17 20 6 7 13 -6 21 -7 17 -2
-10 17 4 41 22 35 11 -5 14 -2 9 10 -3 9 -2 17 3 17 5 0 12 -9 15 -20 11 -35
28 -23 22 15 -7 44 -2 44 20 2 13 -25 18 -28 21 -14 2 10 -2 25 -9 33 -10 12
-8 17 7 29 10 8 27 15 37 15 10 0 22 11 27 25 5 14 16 25 24 25 34 0 44 75 12
92 -17 9 -23 7 -41 -17 -57 -79 -59 -81 -102 -66 -21 7 -51 25 -67 40 -16 14
-26 20 -22 13 11 -19 -1 -14 -30 13 -24 22 -26 29 -19 67 4 24 7 54 6 68 0 14
-1 42 -1 62 -1 29 -8 43 -36 67 -19 17 -39 31 -45 31 -6 0 -8 4 -5 9 5 8 -17
23 -37 25 -18 2 -35 39 -31 64 2 15 6 43 9 62 13 86 28 117 76 156 27 21 48
45 49 52 0 8 -3 12 -8 10 -76 -33 -93 -46 -117 -93 -14 -27 -24 -42 -21 -33
10 33 -11 27 -27 -8 -21 -43 -22 -110 -2 -157 8 -19 46 -68 85 -108 76 -78 83
-92 78 -160 -2 -31 -7 -43 -17 -41 -10 2 -12 -4 -7 -23 6 -25 -8 -36 -17 -12
-4 9 -7 9 -15 -1 -6 -10 -18 -4 -47 23 -22 19 -41 35 -45 35 -3 0 -16 10 -30
23 -14 12 -29 22 -35 22 -5 1 -31 5 -57 9 -60 10 -157 -18 -243 -70 -59 -35
-61 -36 -112 -24 -29 6 -53 15 -53 20 0 5 -10 12 -22 15 -27 9 -78 54 -78 70
0 28 -103 109 -133 104 -19 -4 -110 13 -129 23 -10 5 -18 15 -18 23 0 24 23
65 33 58 5 -3 8 0 5 8 -3 8 5 21 17 31 20 15 26 16 70 2 27 -7 55 -14 64 -13
9 0 -6 7 -32 14 -67 18 -72 29 -12 21 145 -18 157 -19 164 -8 5 8 19 1 41 -20
22 -20 52 -35 80 -40 24 -4 49 -13 54 -18 5 -5 11 -49 12 -97 l3 -88 -37 -32
c-20 -17 -33 -35 -29 -39 4 -5 12 -3 16 4 9 14 31 13 44 -3 5 -6 7 -3 3 7 -3
10 -1 20 4 23 5 3 11 -4 15 -15 4 -11 10 -18 15 -15 5 3 7 12 4 19 -6 15 29
52 76 80 42 24 37 12 -6 -14 -19 -12 -33 -25 -30 -27 3 -3 17 2 30 11 14 8 32
13 40 10 8 -3 28 2 45 10 34 18 55 21 46 6 -4 -6 10 -10 34 -10 23 0 44 0 48
-1 4 0 9 4 11 10 2 7 -14 11 -42 11 -24 0 -48 5 -51 10 -4 7 -13 6 -27 -1 -15
-8 -22 -8 -28 0 -4 7 -15 9 -25 5 -12 -5 -16 -4 -12 3 9 14 -55 -8 -77 -26
-18 -15 -46 -8 -46 11 0 9 3 9 12 0 17 -17 31 -15 24 3 -4 11 3 19 22 26 33
13 229 17 257 6 20 -9 20 -8 1 7 -25 20 -14 20 24 1 23 -12 30 -13 30 -3 0 7
-21 22 -48 33 -50 20 -190 28 -245 12 -19 -5 -27 -4 -22 3 3 5 -1 10 -10 10
-10 0 -15 -6 -12 -13 3 -7 -4 -19 -14 -25 -17 -11 -19 -9 -19 13 0 14 4 25 10
25 6 0 6 9 0 26 -14 35 -13 37 15 32 13 -3 22 -2 20 2 -8 13 86 23 98 11 8 -8
6 -11 -5 -11 -9 0 -19 -4 -22 -9 -6 -10 73 4 121 21 40 14 44 33 6 23 -27 -6
-27 -6 -8 9 11 8 32 16 46 16 35 0 44 13 62 85 12 47 12 61 2 70 -27 22 -45
61 -45 97 0 30 9 47 46 89 37 42 45 57 41 78 -7 35 5 54 28 45 17 -7 17 -6 0
20 -15 23 -16 30 -5 51 7 13 17 22 22 19 4 -3 8 6 8 20 0 13 5 37 11 53 6 15
11 49 10 75 0 26 4 50 9 53 6 3 15 16 22 28 10 21 10 21 -7 7 -17 -14 -17 -14
-2 16 19 37 30 42 117 54 79 11 153 19 123 13 -25 -5 -32 -23 -9 -23 8 0 58 9
111 20 53 11 125 20 159 20 39 0 56 3 47 9 -10 7 -8 10 10 16 13 4 31 14 41
22 9 8 22 13 30 12 7 -1 22 -1 32 0 20 1 20 1 0 17 -18 15 -18 15 4 9 12 -4
22 -2 22 3 0 6 -11 13 -24 16 -14 3 -27 14 -30 24 -9 26 -86 70 -136 78 -58 9
-165 37 -260 68 -73 23 -225 47 -285 45 -16 -1 -79 -5 -140 -10z m279 -34 c-4
-9 -19 -15 -41 -15 -20 0 -32 4 -28 10 4 6 -15 9 -49 9 -31 -1 -56 -4 -56 -8
0 -15 -89 -45 -132 -45 -26 -1 -50 -6 -52 -12 -2 -6 -22 -15 -43 -19 -21 -4
-42 -10 -48 -13 -11 -7 -17 -9 -40 -11 -8 0 -15 -5 -15 -11 0 -5 7 -7 15 -4 8
4 15 1 15 -5 0 -6 5 -11 10 -11 6 0 10 7 10 15 0 16 25 21 34 6 6 -8 -81 -51
-104 -51 -6 0 -23 -11 -37 -24 -20 -19 -34 -23 -54 -19 -19 3 -34 0 -44 -11
-19 -19 -19 -19 24 -6 32 9 33 8 27 -15 -5 -18 -2 -25 9 -25 8 0 15 6 15 14 0
7 9 16 20 19 13 3 18 1 13 -6 -14 -23 -78 -87 -87 -87 -5 0 -18 -8 -28 -17
-10 -9 -42 -20 -71 -24 -29 -5 -84 -13 -123 -18 -99 -14 -173 -59 -287 -177
-94 -97 -122 -136 -113 -157 2 -7 5 -3 6 8 2 17 3 17 11 -5 8 -22 8 -22 4 7
-3 21 1 36 12 45 14 11 15 11 7 -4 -5 -9 -6 -64 -3 -125 5 -86 11 -121 33
-171 15 -35 24 -68 20 -74 -4 -6 -3 -8 2 -5 5 3 17 -8 27 -25 l18 -31 -23 15
c-13 8 -33 33 -45 54 -14 24 -23 32 -23 21 0 -31 40 -73 91 -97 27 -13 49 -27
49 -32 0 -4 8 -8 17 -8 14 0 13 -3 -5 -23 -22 -23 -49 -83 -48 -105 1 -7 16
-25 34 -40 31 -25 32 -29 21 -59 -6 -18 -9 -38 -7 -45 3 -7 12 9 21 36 9 27
14 53 11 58 -4 6 3 5 15 -2 12 -6 19 -15 16 -20 -3 -5 -1 -11 5 -15 5 -3 10
-1 10 4 0 6 6 11 13 11 18 0 13 -84 -7 -133 -23 -53 -26 -46 -9 19 20 77 10
103 -11 29 -20 -69 -36 -105 -47 -105 -5 0 -6 8 -3 18 4 12 0 10 -15 -7 -17
-19 -24 -21 -35 -11 -8 6 -12 19 -9 27 4 11 2 14 -5 9 -7 -4 -14 3 -18 19 -3
13 -10 23 -14 20 -11 -7 -53 82 -45 95 4 6 -1 14 -12 16 -10 3 -27 19 -37 37
-16 27 -20 29 -24 13 -8 -37 -69 86 -95 195 -43 175 -51 220 -41 227 5 4 10
36 12 72 4 80 35 208 62 252 11 18 30 52 42 75 12 23 26 39 31 36 5 -3 15 4
23 16 8 12 23 21 32 22 12 0 13 2 4 6 -10 4 -8 9 7 20 12 8 19 18 17 22 -3 4
13 25 34 46 43 42 51 58 23 48 -46 -17 80 74 142 103 119 55 389 131 545 153
41 6 86 13 100 15 14 2 93 4 177 5 132 1 152 -1 147 -14z m56 -5 c0 -5 -9 -10
-21 -10 -11 0 -17 5 -14 10 3 6 13 10 21 10 8 0 14 -4 14 -10z m53 -7 c-7 -2
-19 -2 -25 0 -7 3 -2 5 12 5 14 0 19 -2 13 -5z m-210 -10 c-7 -2 -19 -2 -25 0
-7 3 -2 5 12 5 14 0 19 -2 13 -5z m190 -25 c4 -10 8 -10 15 1 7 10 23 11 63 6
49 -7 110 -28 69 -24 -31 3 -60 -1 -60 -8 0 -5 42 -8 93 -8 87 0 95 -2 147
-34 30 -19 73 -43 94 -54 29 -14 36 -21 25 -27 -18 -9 -208 -36 -359 -50 -63
-6 -124 -13 -135 -16 -16 -4 -17 -3 -5 5 8 6 29 11 47 11 17 0 35 5 38 10 10
17 -36 11 -105 -13 -36 -13 -70 -22 -76 -20 -15 5 -76 -75 -68 -89 4 -6 3 -8
-3 -5 -13 8 -22 -33 -29 -123 -3 -38 -12 -72 -21 -82 -21 -24 -35 -101 -20
-110 8 -5 9 -10 2 -17 -7 -7 -17 0 -29 24 -11 19 -23 35 -28 35 -4 0 -8 6 -8
13 0 15 -34 59 -44 58 -16 -2 -115 58 -146 89 -19 19 -39 34 -45 35 -44 3
-132 30 -141 44 -15 20 -9 32 13 24 11 -4 14 -3 9 6 -5 7 3 22 19 37 21 20 30
22 41 13 11 -9 14 -8 14 4 0 8 -5 17 -10 19 -12 4 134 158 150 158 6 0 29 9
50 19 22 10 38 16 37 12 -1 -3 2 -6 8 -6 5 0 9 5 7 12 -3 14 3 18 41 27 19 4
26 3 22 -4 -3 -5 0 -10 9 -10 8 0 16 5 18 12 5 15 51 18 61 4 5 -7 12 -5 21 7
17 22 88 25 80 2 -5 -11 -2 -13 10 -9 9 3 13 10 10 15 -3 5 8 9 25 9 16 0 31
-6 34 -12 3 -9 7 -7 12 5 8 20 41 23 48 5z m-463 -53 c-14 -7 -27 -11 -30 -9
-6 7 22 24 40 23 9 0 5 -6 -10 -14z m826 0 c38 -16 93 -55 77 -55 -6 0 -37 16
-69 35 -62 38 -65 44 -8 20z m-960 -90 c-11 -8 -24 -15 -30 -15 -5 0 -1 7 10
15 10 8 24 14 29 14 6 0 1 -6 -9 -14z m-236 -205 c-8 -5 -26 -10 -40 -10 -20
0 -22 2 -10 10 8 5 26 10 40 10 20 0 22 -2 10 -10z m54 -5 c-4 -8 -11 -15 -16
-15 -6 0 -5 6 2 15 7 8 14 15 16 15 2 0 1 -7 -2 -15z m36 0 c10 -12 10 -15 -4
-15 -9 0 -16 7 -16 15 0 8 2 15 4 15 2 0 9 -7 16 -15z m-230 -8 c-14 -6 -56
-28 -93 -50 -38 -21 -71 -37 -74 -34 -6 6 77 56 132 79 44 19 75 23 35 5z
m1590 -62 c0 -17 -19 1 -33 30 -24 50 -21 54 8 11 14 -20 25 -39 25 -41z
m-150 49 c0 -8 -4 -12 -10 -9 -5 3 -10 10 -10 16 0 5 5 9 10 9 6 0 10 -7 10
-16z m-1169 -21 l-34 -4 6 -57 c5 -41 3 -51 -3 -34 -12 29 -51 62 -64 55 -5
-3 -2 -10 6 -14 9 -5 20 -28 27 -51 26 -99 60 -252 57 -256 -7 -6 -76 249 -76
280 0 10 -4 18 -10 18 -5 0 -10 -5 -10 -11 0 -5 -5 -7 -10 -4 -6 4 -8 15 -5
25 3 11 0 20 -10 24 -17 6 -21 26 -4 26 5 0 7 -6 3 -12 -5 -9 -2 -9 9 1 11 8
28 11 47 8 16 -4 32 -2 35 3 3 6 21 9 38 8 l32 -1 -34 -4z m94 -13 c13 -5 14
-9 5 -9 -8 0 -24 4 -35 9 -13 5 -14 9 -5 9 8 0 24 -4 35 -9z m1141 -114 c-2
-6 -7 -2 -12 9 -4 11 -18 37 -31 57 -13 21 -23 43 -23 50 0 6 16 -15 35 -47
20 -32 34 -63 31 -69z m-1360 48 c17 -65 3 -120 -17 -66 -5 13 -5 22 1 22 6 0
10 7 10 15 0 8 -5 15 -11 15 -6 0 -9 9 -6 20 3 11 1 23 -4 26 -5 3 -9 13 -9
22 0 24 26 -15 36 -54z m212 44 c17 -5 32 -14 32 -19 0 -5 -13 -3 -30 6 -42
22 -50 19 -50 -17 0 -37 -12 -28 -28 20 -11 32 -11 32 16 26 15 -3 42 -10 60
-16z m1065 -5 c-4 -10 -2 -14 4 -10 5 3 17 -9 26 -28 9 -19 13 -35 8 -35 -5 0
-12 11 -15 25 -4 14 -12 24 -19 22 -7 -1 -12 9 -13 25 -1 15 3 25 7 22 4 -2 5
-12 2 -21z m-1381 -75 c2 -37 0 -64 -4 -62 -12 8 -10 -5 17 -86 44 -131 116
-372 113 -375 -2 -2 -21 46 -42 107 -27 79 -41 106 -48 97 -7 -10 -8 -8 -3 8
8 28 -5 80 -15 62 -5 -8 -8 -3 -8 12 1 13 -9 62 -20 108 -12 46 -19 88 -16 92
8 13 -15 49 -31 49 -8 0 -15 -8 -15 -17 0 -15 -2 -14 -16 3 -15 19 -15 18 -11
-3 3 -13 2 -23 -2 -23 -5 0 -13 10 -19 23 -10 19 -11 15 -7 -23 2 -25 2 -37
-1 -27 -3 9 -10 17 -15 17 -5 0 -9 7 -9 15 0 8 -5 15 -11 15 -6 0 -8 -8 -5
-17 11 -37 45 -217 42 -221 -6 -5 -33 82 -51 160 -8 37 -18 73 -21 82 -7 18
34 41 126 71 42 14 66 18 67 11 1 -6 3 -41 5 -78z m715 70 c-3 -8 -6 -5 -6 6
-1 11 2 17 5 13 3 -3 4 -12 1 -19z m-468 -60 c11 -35 25 -90 30 -123 5 -33 13
-76 16 -95 5 -31 3 -29 -14 14 -33 80 -74 266 -58 266 3 0 15 -28 26 -62z
m1116 31 c9 -17 14 -33 12 -36 -4 -3 -37 53 -37 64 0 11 12 -1 25 -28z m151
-2 c-3 -12 -1 -26 5 -33 6 -8 6 -14 0 -18 -12 -8 -32 50 -25 69 9 22 27 6 20
-18z m-1726 10 c0 -2 -10 -12 -22 -23 l-23 -19 19 23 c18 21 26 27 26 19z
m245 -67 c4 -25 14 -58 22 -74 17 -34 53 -176 53 -209 -1 -12 -10 5 -22 38
-11 33 -21 68 -20 79 1 10 -6 25 -14 33 -7 8 -14 27 -14 42 0 15 -4 31 -9 37
-5 5 -12 36 -15 69 -7 69 7 57 19 -15z m266 -3 c-8 -8 -11 -5 -11 9 0 10 -3
30 -5 44 -4 19 -1 17 10 -9 12 -24 13 -37 6 -44z m47 58 c4 -3 42 -187 41
-199 0 -6 -9 18 -19 53 -10 35 -22 66 -27 70 -5 3 -16 25 -25 49 -17 43 -17
43 5 36 12 -3 23 -7 25 -9z m93 -233 c11 -45 19 -88 16 -95 -2 -6 -14 27 -26
73 -12 47 -28 103 -36 125 -8 22 -17 60 -20 85 -4 40 -2 36 20 -30 14 -41 34
-112 46 -158z m-23 158 c0 -9 -3 -7 -8 5 -5 11 -8 29 -8 40 0 16 2 15 8 -5 4
-14 8 -32 8 -40z m51 -80 c-4 -3 -1 -32 7 -64 8 -32 13 -60 11 -62 -2 -2 -11
24 -20 58 -44 174 -49 227 -12 133 12 -33 19 -62 14 -65z m-673 68 c2 -18 7
-42 10 -53 16 -55 16 -60 6 -50 -14 13 -43 126 -36 137 9 14 16 2 20 -34z
m169 -76 c-5 -6 -25 70 -24 93 1 11 7 -5 15 -35 7 -30 11 -56 9 -58z m555 82
c0 -2 -9 0 -20 6 -15 8 -20 8 -20 -1 0 -7 -3 -10 -6 -6 -3 3 -3 10 1 16 6 11
45 -2 45 -15z m158 0 c-7 -15 -14 -21 -16 -15 -2 7 2 18 8 26 18 22 21 18 8
-11z m-873 -204 c8 -52 28 -133 44 -173 13 -34 14 -47 3 -47 -10 0 -61 164
-92 298 -13 51 -24 91 -26 89 -4 -4 7 -64 42 -240 8 -44 13 -81 11 -83 -4 -4
-46 147 -73 258 -3 16 -10 25 -15 22 -16 -9 -10 23 6 36 9 7 14 19 11 27 -3 8
-2 11 4 8 5 -3 15 1 22 9 11 11 17 -1 35 -73 12 -47 24 -106 28 -131z m406
-33 c17 -60 29 -111 26 -113 -8 -8 -108 325 -107 357 1 17 39 -99 81 -244z
m1326 231 c-3 -8 -6 -5 -6 6 -1 11 2 17 5 13 3 -3 4 -12 1 -19z m-1208 -83 c0
-5 -6 5 -14 24 -8 18 -15 43 -14 55 0 12 7 1 15 -24 7 -25 14 -49 13 -55z
m-393 -2 c15 -49 27 -96 26 -105 0 -10 3 -18 9 -18 5 0 9 -13 9 -29 0 -17 4
-32 8 -35 5 -3 7 -29 6 -58 -2 -50 -2 -51 10 -25 13 30 14 29 63 -147 3 -12 1
-16 -6 -12 -6 4 -11 17 -11 30 0 12 -3 26 -7 30 -4 4 -9 18 -10 31 -2 14 -8
35 -12 48 -9 22 -9 22 -16 -6 -5 -17 -3 -33 5 -42 10 -12 9 -15 -3 -15 -12 0
-18 14 -24 53 -4 28 -7 59 -6 67 2 16 -16 86 -47 180 -20 61 -35 140 -26 140
3 0 18 -39 32 -87z m568 46 c12 -62 5 -87 -9 -34 -17 60 -17 65 -6 65 5 0 11
-14 15 -31z m72 -3 c31 -31 35 -40 32 -80 -2 -25 -7 -46 -11 -46 -5 0 -6 -3
-3 -8 2 -4 -2 -16 -10 -27 -13 -18 -14 -17 -14 9 0 15 -8 57 -17 93 -12 51
-18 62 -24 47 -6 -14 -8 -11 -6 14 1 17 5 32 10 32 5 0 24 -15 43 -34z m-436
-51 c10 -39 16 -73 14 -76 -2 -4 3 -20 11 -35 17 -33 20 -64 6 -49 -5 6 -21
53 -36 105 -14 52 -28 103 -32 114 -3 12 -1 17 7 14 7 -2 21 -35 30 -73z
m-191 -185 c1 -13 0 -13 -9 0 -16 24 -12 -2 10 -65 11 -32 20 -63 19 -69 0 -6
-12 21 -25 59 -16 45 -22 81 -19 100 5 24 4 27 -5 15 -9 -12 -10 -7 -5 19 5
21 4 31 -3 27 -5 -3 -10 4 -10 17 1 12 -2 45 -6 72 -4 34 3 17 23 -55 17 -58
30 -112 30 -120z m-237 42 c16 -68 27 -126 25 -129 -3 -3 -11 15 -17 38 -9 36
-35 129 -56 198 -3 8 -1 23 3 35 7 20 7 20 11 1 2 -11 17 -75 34 -143z m631
118 c3 -11 1 -18 -4 -14 -5 3 -9 12 -9 20 0 20 7 17 13 -6z m205 -35 c0 -16
-2 -15 -8 5 -11 34 -11 60 0 35 5 -11 8 -29 8 -40z m1139 3 c-3 -7 -5 -2 -5
12 0 14 2 19 5 13 2 -7 2 -19 0 -25z m-1402 -94 c20 -63 34 -118 32 -121 -3
-3 -13 23 -23 58 -10 35 -19 58 -21 52 -2 -6 9 -53 26 -105 16 -51 35 -112 41
-136 13 -52 31 -47 19 5 -11 49 -11 53 1 53 6 0 10 -6 10 -12 0 -7 5 -30 11
-50 11 -40 35 -54 26 -15 -10 43 -17 92 -11 78 5 -11 8 -11 16 0 5 9 6 4 2
-16 -4 -23 -3 -27 5 -15 9 12 10 9 5 -14 -5 -22 -4 -28 7 -24 9 3 13 16 11 34
-2 29 -2 29 14 -6 13 -28 17 -32 23 -18 4 11 11 14 19 9 23 -14 -50 -59 -127
-77 -70 -17 -72 -17 -91 2 -10 10 -21 37 -24 59 -5 29 -4 35 3 20 9 -18 10
-17 10 8 1 40 17 25 37 -36 23 -68 30 -45 9 30 -9 32 -21 76 -26 98 -21 91
-36 135 -42 129 -4 -4 -2 7 4 25 9 24 9 39 0 57 -11 25 -14 44 -7 44 2 0 20
-52 41 -116z m-568 64 c-3 -7 -5 -2 -5 12 0 14 2 19 5 13 2 -7 2 -19 0 -25z
m690 -10 c-3 -8 -6 -5 -6 6 -1 11 2 17 5 13 3 -3 4 -12 1 -19z m140 -95 c-10
-38 -9 -45 17 -81 40 -58 37 -94 -9 -142 -21 -22 -41 -37 -44 -35 -3 3 10 19
27 35 22 20 31 36 29 51 -5 27 -27 38 -27 13 0 -34 -10 -7 -23 62 -13 72 -12
104 4 104 5 0 9 21 10 48 l1 47 13 -30 c10 -24 11 -40 2 -72z m-820 55 c-3 -7
-5 -2 -5 12 0 14 2 19 5 13 2 -7 2 -19 0 -25z m151 -48 c31 -117 33 -130 24
-130 -5 0 -17 37 -27 83 -9 45 -19 93 -22 107 -12 55 7 10 25 -60z m-189 25
c0 -5 -4 -3 -9 5 -5 8 -9 22 -9 30 0 16 17 -16 18 -35z m678 -148 c-7 -21 -54
143 -49 169 5 23 10 10 29 -66 12 -52 22 -99 20 -103z m130 161 c-3 -7 -5 -2
-5 12 0 14 2 19 5 13 2 -7 2 -19 0 -25z m-828 -38 c1 -13 0 -13 -9 0 -5 8 -9
24 -9 35 l0 20 9 -20 c5 -11 9 -27 9 -35z m179 -6 c-3 -14 -5 -12 -10 9 -3 19
-2 25 4 19 6 -6 8 -18 6 -28z m1681 17 c13 -10 21 -24 18 -32 -4 -10 -6 -9 -6
4 -1 13 -7 16 -28 13 -34 -7 -38 -13 -53 -97 -6 -39 -14 -68 -17 -66 -2 3 3
42 11 87 19 97 18 90 7 90 -4 0 -13 -15 -19 -32 l-11 -33 6 34 c5 30 4 33 -9
20 -8 -8 -19 -23 -26 -34 -11 -19 -11 -19 -12 3 0 15 11 29 33 42 40 25 75 25
106 1z m71 4 c0 -8 -7 -15 -16 -15 -14 0 -14 3 -4 15 7 8 14 15 16 15 2 0 4
-7 4 -15z m-1401 -50 c9 -36 9 -38 -4 -21 -8 11 -15 31 -15 45 0 32 5 25 19
-24z m-496 3 c6 -22 5 -22 -8 -4 -17 22 -20 40 -6 32 5 -3 11 -16 14 -28z
m772 -3 c14 -11 51 -153 42 -161 -2 -3 -12 25 -21 62 -9 37 -24 76 -31 88 -8
11 -15 27 -14 36 0 13 1 13 6 0 4 -8 12 -19 18 -25z m-401 -57 c3 -16 5 -28 2
-28 -4 0 -36 95 -36 107 1 12 26 -47 34 -79z m1516 49 c0 -23 -2 -22 -19 10
-10 19 -9 22 4 17 8 -4 15 -15 15 -27z m-1473 -14 c-3 -10 -5 -4 -5 12 0 17 2
24 5 18 2 -7 2 -21 0 -30z m1402 0 c11 -38 6 -58 -11 -47 -5 4 -7 19 -4 35 3
16 1 29 -4 29 -6 0 -10 5 -10 10 0 25 20 6 29 -27z m-1650 -23 c0 -9 -4 -8 -9
5 -5 11 -9 27 -9 35 0 9 4 8 9 -5 5 -11 9 -27 9 -35z m261 -7 c-11 -17 -11
-17 -6 0 3 10 6 24 7 30 0 9 2 9 5 0 3 -7 0 -20 -6 -30z m-191 -38 c1 -16 -1
-17 -9 -5 -5 8 -9 29 -9 45 1 29 1 29 9 5 4 -14 8 -34 9 -45z m499 28 c15 -50
9 -52 -11 -3 -8 22 -12 40 -8 40 4 0 13 -17 19 -37z m-715 -3 c3 -11 2 -20 -3
-20 -8 0 -20 24 -20 41 0 17 17 1 23 -21z m-29 -6 c3 -8 2 -12 -4 -9 -6 3 -10
10 -10 16 0 14 7 11 14 -7z m95 -34 c0 -9 -4 -8 -9 5 -5 11 -9 27 -9 35 0 9 4
8 9 -5 5 -11 9 -27 9 -35z m40 0 c1 -13 0 -13 -9 0 -5 8 -9 24 -9 35 l0 20 9
-20 c5 -11 9 -27 9 -35z m48 8 c-3 -8 -6 -5 -6 6 -1 11 2 17 5 13 3 -3 4 -12
1 -19z m293 -13 c0 -5 -5 -3 -10 5 -5 8 -10 20 -10 25 0 6 5 3 10 -5 5 -8 10
-19 10 -25z m-65 -34 c9 -28 22 -52 28 -55 7 -2 0 -5 -15 -5 -16 -1 -29 2 -29
7 -3 19 -6 102 -4 102 2 0 11 -22 20 -49z m45 24 c0 -7 5 -15 11 -17 7 -2 6
-8 -4 -16 -12 -11 -15 -7 -19 22 -2 19 0 32 4 30 4 -3 8 -11 8 -19z m-196 -11
c11 -28 7 -32 -21 -25 -37 10 -44 41 -10 41 14 0 28 -7 31 -16z m1443 -6 c-3
-8 -6 -5 -6 6 -1 11 2 17 5 13 3 -3 4 -12 1 -19z m-1617 2 c0 -5 -2 -10 -4
-10 -3 0 -8 5 -11 10 -3 6 -1 10 4 10 6 0 11 -4 11 -10z m250 -37 c0 -10 -6
-12 -22 -7 -31 9 -33 11 -18 29 14 17 40 4 40 -22z m197 5 c-3 -7 -5 -2 -5 12
0 14 2 19 5 13 2 -7 2 -19 0 -25z m-473 -7 c-2 -3 -12 3 -22 13 -16 17 -16 18
5 5 12 -7 20 -15 17 -18z m102 8 c3 -5 15 -7 27 -4 12 3 49 -3 82 -14 l60 -19
-70 -1 c-52 0 -84 6 -125 23 l-54 24 37 0 c20 0 40 -4 43 -9z m1414 -9 c6 -11
8 -20 6 -20 -3 0 -10 9 -16 20 -6 11 -8 20 -6 20 3 0 10 -9 16 -20z m404 -45
c4 -16 11 -47 15 -68 12 -53 25 -61 16 -9 -4 25 -3 42 3 42 10 0 14 -104 6
-158 -3 -18 -9 -30 -15 -27 -5 4 -9 -1 -9 -10 0 -9 -4 -13 -10 -10 -5 3 -10
-1 -10 -10 0 -9 -4 -13 -10 -10 -5 3 -10 -2 -11 -12 0 -16 -1 -16 -9 2 -8 19
-9 19 -9 -3 -1 -13 -5 -20 -11 -17 -5 3 -10 -4 -10 -16 0 -21 0 -21 -20 2 -17
21 -19 22 -20 6 0 -10 -6 -17 -12 -15 -19 7 -21 90 -4 147 8 28 11 53 6 56
-15 9 -32 -74 -28 -142 3 -67 -6 -78 -37 -46 -12 12 -19 13 -24 4 -4 -6 -15
-9 -24 -5 -9 3 -15 10 -12 14 3 5 -2 15 -11 24 -8 9 -17 33 -19 53 -5 37 -4
37 7 11 17 -41 31 -34 23 11 -4 22 -8 55 -9 73 -2 18 -13 53 -26 78 l-22 45
24 -22 c19 -18 39 -24 89 -27 82 -4 105 7 130 63 18 42 20 43 33 25 7 -10 16
-32 20 -49z m-1490 29 c4 -9 4 -19 2 -22 -10 -9 -36 8 -36 23 0 20 26 19 34
-1z m46 -4 c5 8 9 5 13 -10 4 -16 1 -20 -11 -18 -9 2 -18 12 -19 23 -2 12 0
14 3 6 5 -10 8 -10 14 -1z m350 -10 c-6 -11 -15 -20 -20 -20 -6 0 -2 9 7 20
10 11 19 20 21 20 1 0 -2 -9 -8 -20z m-753 4 c-3 -3 -12 -4 -19 -1 -8 3 -5 6
6 6 11 1 17 -2 13 -5z m1673 -14 c0 -5 -5 -10 -11 -10 -5 0 -7 5 -4 10 3 6 8
10 11 10 2 0 4 -4 4 -10z m200 -4 c0 -3 -4 -8 -10 -11 -5 -3 -10 -1 -10 4 0 6
5 11 10 11 6 0 10 -2 10 -4z m-1498 -30 c13 -20 9 -26 -19 -26 -16 0 -41 10
-56 23 l-28 22 48 -4 c26 -2 51 -8 55 -15z m259 -6 c-13 -11 -31 -20 -40 -20
-9 0 0 8 19 19 46 24 50 24 21 1z m-191 -10 c13 -8 13 -10 -2 -10 -9 0 -20 5
-23 10 -8 13 5 13 25 0z m1080 -76 c0 -8 -5 -12 -10 -9 -18 11 -49 -5 -66 -33
-8 -15 -12 -18 -9 -7 4 11 9 28 12 37 3 10 18 19 37 21 17 2 32 5 34 5 1 1 2
-5 2 -14z m-890 -54 c-99 -10 -137 -19 -155 -36 -8 -9 -20 -12 -27 -8 -8 5 5
16 37 31 41 19 66 23 135 21 l85 -1 -75 -7z m-479 -133 c-25 -25 -30 -21 -38
29 l-6 38 32 -23 33 -24 -21 -20z m439 59 c0 -2 -7 -7 -16 -10 -8 -3 -12 -2
-9 4 6 10 25 14 25 6z m986 -56 c13 0 24 -22 24 -51 0 -30 -41 -23 -77 14 -28
28 -31 36 -24 62 l9 30 1 -32 c1 -20 6 -33 14 -33 9 0 12 12 10 38 l-3 37 17
-32 c9 -18 22 -33 29 -33z m-106 -20 c0 -5 -2 -10 -4 -10 -3 0 -8 5 -11 10 -3
6 -1 10 4 10 6 0 11 -4 11 -10z m243 -30 c3 -11 1 -18 -4 -14 -5 3 -9 12 -9
20 0 20 7 17 13 -6z m-1149 -5 c-4 -8 -8 -15 -10 -15 -2 0 -4 7 -4 15 0 8 4
15 10 15 5 0 7 -7 4 -15z m1194 -5 c-7 -11 -17 -20 -22 -20 -5 0 -1 9 9 20 10
11 20 20 22 20 2 0 -2 -9 -9 -20z m-1053 -40 c10 -46 0 -36 -14 14 -5 22 -6
35 -2 30 5 -5 12 -25 16 -44z m812 28 c-3 -8 -6 -5 -6 6 -1 11 2 17 5 13 3 -3
4 -12 1 -19z m-770 -20 c-3 -7 -5 -2 -5 12 0 14 2 19 5 13 2 -7 2 -19 0 -25z
m42 -5 c7 -21 15 -45 18 -53 4 -10 2 -12 -4 -5 -15 15 -44 95 -35 95 5 0 14
-17 21 -37z m-242 -5 c-3 -8 -6 -5 -6 6 -1 11 2 17 5 13 3 -3 4 -12 1 -19z
m1129 -10 c14 -13 30 -34 36 -48 7 -18 11 -21 17 -11 7 10 12 8 25 -10 18 -26
21 -59 6 -59 -5 0 -10 9 -10 19 0 11 -4 22 -9 25 -14 9 -22 -23 -15 -60 5 -29
4 -33 -10 -28 -9 3 -16 10 -16 15 0 35 -36 95 -76 125 l-35 27 28 13 c15 7 29
13 30 13 2 1 15 -9 29 -21z m-201 2 c-3 -5 -12 -10 -18 -10 -7 0 -6 4 3 10 19
12 23 12 15 0z m-1061 -36 c3 -8 2 -12 -4 -9 -6 3 -10 10 -10 16 0 14 7 11 14
-7z m526 7 c0 -6 9 -8 20 -6 11 2 23 -1 26 -7 4 -6 3 -8 -3 -5 -13 8 -26 -20
-17 -36 7 -13 4 -10 -35 36 -20 22 -22 27 -8 27 9 0 17 -4 17 -9z m323 -36
c-3 -9 -8 -14 -10 -11 -3 3 -2 9 2 15 9 16 15 13 8 -4z m-344 -45 c0 -10 -3
-8 -9 5 -12 27 -12 43 0 25 5 -8 9 -22 9 -30z m-150 -25 c0 -5 -6 1 -14 15 -8
14 -14 30 -14 35 0 6 6 -1 14 -15 8 -14 14 -29 14 -35z m-51 10 c-3 -3 -9 2
-12 12 -6 14 -5 15 5 6 7 -7 10 -15 7 -18z m311 -11 c12 -19 16 -32 11 -29
-11 7 -43 65 -36 65 2 0 13 -16 25 -36z m201 26 c0 -5 -5 -10 -11 -10 -5 0 -7
5 -4 10 3 6 8 10 11 10 2 0 4 -4 4 -10z m-662 -63 c6 -39 6 -55 -1 -48 -10 10
-24 120 -14 111 3 -3 10 -32 15 -63z m55 8 l6 -30 -14 30 c-16 34 -21 72 -6
45 5 -8 11 -28 14 -45z m491 39 c9 -24 2 -26 -12 -4 -7 11 -8 20 -3 20 5 0 12
-7 15 -16z m-426 -69 c0 -5 -6 4 -13 20 -8 17 -14 37 -14 45 0 8 7 -1 14 -20
7 -19 13 -39 13 -45z m222 8 c0 -16 -16 -26 -17 -10 -1 7 -4 28 -7 47 l-6 35
14 -30 c9 -16 15 -35 16 -42z m61 5 c11 -22 18 -42 16 -45 -3 -2 -8 5 -12 16
-3 12 -10 21 -15 21 -4 0 -13 14 -19 30 -14 42 4 28 30 -22z m-242 -38 c0 -9
-6 -4 -14 10 -8 14 -14 34 -14 45 1 15 4 13 14 -10 8 -16 14 -37 14 -45z m307
19 c31 -61 12 -49 -26 16 -19 31 -20 37 -6 26 9 -8 24 -27 32 -42z m558 22 c4
-5 0 -12 -6 -14 -8 -3 -6 -6 4 -6 10 -1 22 -10 28 -20 14 -27 13 -31 -7 -31
-20 0 -57 56 -47 71 7 12 21 12 28 0z m-506 -26 c-3 -3 -9 2 -12 12 -6 14 -5
15 5 6 7 -7 10 -15 7 -18z m-601 -7 c-3 -8 -6 -5 -6 6 -1 11 2 17 5 13 3 -3 4
-12 1 -19z m403 -52 c-1 -19 -29 38 -29 59 0 14 4 10 14 -14 8 -18 15 -38 15
-45z m39 -11 c0 -5 -6 1 -14 15 -8 14 -14 30 -14 35 0 6 6 -1 14 -15 8 -14 14
-29 14 -35z m21 20 c0 -5 -5 -3 -10 5 -5 8 -10 20 -10 25 0 6 5 3 10 -5 5 -8
10 -19 10 -25z m-348 -20 c3 -13 1 -22 -3 -19 -9 5 -13 44 -5 44 2 0 6 -11 8
-25z m1140 -2 c-3 -16 -7 -22 -10 -15 -4 13 4 42 11 42 2 0 2 -12 -1 -27z
m-918 -145 c16 -72 29 -98 43 -84 3 3 1 12 -5 19 -14 16 -43 149 -32 142 4 -3
11 -17 14 -32 19 -77 28 -105 32 -100 3 3 -2 33 -11 67 -9 34 -15 69 -13 79 2
9 16 -33 32 -92 15 -60 25 -111 22 -114 -3 -4 -6 -2 -6 4 0 6 -24 13 -54 17
-68 8 -86 14 -86 32 0 8 -4 14 -8 14 -5 0 -9 6 -10 13 -1 6 -6 39 -12 71 -21
114 2 82 42 -58 17 -62 38 -73 37 -19 -1 32 -2 34 -8 13 -6 -22 -9 -19 -19 25
-6 28 -10 66 -9 85 1 19 -2 46 -6 60 -4 14 3 5 16 -20 14 -25 32 -80 41 -122z
m836 91 c0 -10 -4 -19 -9 -19 -5 0 -16 -3 -25 -6 -9 -3 -16 -1 -16 6 0 6 5 8
12 4 8 -5 9 5 5 37 l-7 44 20 -24 c11 -13 20 -32 20 -42z m-1020 16 c0 -5 -5
-3 -10 5 -5 8 -10 20 -10 25 0 6 5 3 10 -5 5 -8 10 -19 10 -25z m963 16 c3
-14 1 -18 -9 -14 -15 6 -18 16 -7 26 9 10 10 9 16 -12z m-923 -99 c7 -45 10
-85 7 -89 -11 -11 -37 6 -36 24 1 17 2 17 6 1 2 -10 9 -18 14 -18 6 0 8 8 6
18 -3 9 -8 40 -12 67 -3 28 -8 64 -11 80 -3 21 -2 25 4 15 5 -8 15 -52 22 -98z
m294 38 c4 -24 3 -29 -3 -15 -4 11 -11 36 -15 55 -4 24 -3 29 3 15 4 -11 11
-36 15 -55z m737 -33 c-1 -50 2 -103 7 -116 8 -21 3 -30 -31 -63 -53 -50 -62
-49 -12 2 35 36 36 39 14 35 -20 -4 -25 0 -26 18 -2 15 0 18 6 8 6 -9 10 -4
13 18 2 17 1 34 -4 39 -11 11 2 93 13 86 5 -3 9 14 9 37 0 23 3 39 7 35 4 -3
6 -48 4 -99z m-746 -18 c16 -47 65 -106 65 -78 0 12 2 12 9 -1 6 -8 7 -18 5
-22 -3 -4 1 -8 8 -9 7 0 2 -5 -12 -10 -19 -8 -27 -6 -37 7 -9 12 -13 14 -13 4
0 -27 -11 -1 -35 83 -14 47 -28 94 -31 104 -11 38 26 -34 41 -78z m-458 59
c-3 -8 -6 -5 -6 6 -1 11 2 17 5 13 3 -3 4 -12 1 -19z m100 -15 c-3 -10 -5 -4
-5 12 0 17 2 24 5 18 2 -7 2 -21 0 -30z m446 2 c24 -50 21 -54 -8 -11 -27 40
-29 46 -17 46 5 0 16 -16 25 -35z m-328 -85 c5 -34 4 -50 -3 -46 -10 6 -14 23
-27 116 l-6 45 14 -31 c8 -17 18 -55 22 -84z m-88 68 c-3 -8 -6 -5 -6 6 -1 11
2 17 5 13 3 -3 4 -12 1 -19z m302 -56 c7 -24 10 -46 7 -49 -6 -7 -32 54 -41
98 -6 31 -6 32 7 14 8 -11 20 -40 27 -63z m-406 25 c6 -22 6 -22 -14 2 -22 27
-26 49 -5 32 8 -6 16 -22 19 -34z m486 -11 c13 -50 0 -37 -16 16 -6 22 -8 37
-3 32 4 -5 13 -26 19 -48z m-402 2 c-3 -7 -5 -2 -5 12 0 14 2 19 5 13 2 -7 2
-19 0 -25z m7 -65 c11 -12 23 -20 28 -17 7 5 168 -23 176 -30 2 -2 -34 -2 -80
1 -120 8 -149 26 -161 103 l-6 35 12 -35 c7 -19 21 -45 31 -57z m23 55 c-3 -7
-5 -2 -5 12 0 14 2 19 5 13 2 -7 2 -19 0 -25z m346 12 c3 -11 1 -18 -4 -14 -5
3 -9 12 -9 20 0 20 7 17 13 -6z m85 -44 c33 -45 45 -75 16 -40 -13 16 -15 16
-10 2 3 -10 1 -18 -4 -18 -5 0 -12 12 -16 28 -3 15 -9 37 -14 50 -14 32 -7 27
28 -22z m-118 -61 c0 -8 -4 -15 -10 -15 -5 0 -10 7 -10 15 0 8 5 15 10 15 6 0
10 -7 10 -15z m-83 -11 c-3 -3 -12 -4 -19 -1 -8 3 -5 6 6 6 11 1 17 -2 13 -5z"/>
<path d="M1451 2687 c-9 -12 -7 -14 9 -13 11 0 21 5 21 11 1 16 -17 17 -30 2z"/>
<path d="M1135 2600 c3 -5 12 -10 20 -10 8 0 17 5 20 10 4 6 -5 10 -20 10 -15
0 -24 -4 -20 -10z"/>
<path d="M1025 2558 c-44 -11 -84 -25 -90 -30 -7 -7 -5 -9 5 -5 8 3 49 13 90
22 41 10 84 21 95 25 l20 9 -20 -1 c-11 0 -56 -9 -100 -20z"/>
<path d="M835 2560 c-8 -13 15 -13 35 0 12 8 11 10 -7 10 -12 0 -25 -4 -28
-10z"/>
<path d="M708 2502 c-27 -16 -37 -32 -20 -32 4 0 21 11 37 25 34 28 23 33 -17
7z"/>
<path d="M845 2480 c-86 -11 -165 -41 -224 -84 -70 -52 -58 -57 18 -8 80 52
176 76 306 76 71 -1 87 1 55 6 -25 4 -56 9 -70 12 -14 3 -52 2 -85 -2z"/>
<path d="M1100 2420 c0 -5 5 -10 10 -10 6 0 10 5 10 10 0 6 -4 10 -10 10 -5 0
-10 -4 -10 -10z"/>
<path d="M780 2377 c-36 -18 -89 -51 -119 -72 -30 -22 -60 -40 -65 -41 -6 0
-17 -2 -23 -2 -7 -1 -13 -7 -13 -14 0 -9 3 -9 12 0 7 7 17 12 23 12 5 0 1 -7
-9 -15 -14 -11 -23 -12 -33 -4 -10 9 -13 8 -13 -1 0 -7 -15 -33 -34 -59 -19
-26 -38 -59 -41 -74 -4 -14 -12 -25 -17 -24 -6 1 -15 -11 -19 -28 -14 -46 -9
-302 7 -373 8 -35 14 -78 14 -95 1 -32 38 -115 40 -87 0 8 8 2 17 -15 16 -30
41 -54 56 -55 5 0 -3 19 -17 43 -14 23 -31 42 -38 42 -7 0 -12 9 -10 19 2 10
-1 15 -6 12 -6 -4 -8 3 -4 16 3 14 2 19 -6 14 -8 -5 -12 0 -12 13 0 12 -9 55
-21 96 -11 41 -19 88 -17 103 3 23 6 20 21 -25 10 -29 23 -55 27 -58 5 -3 2
11 -7 32 -63 152 -34 354 66 451 61 59 259 190 299 198 17 4 29 10 26 15 -8
14 -15 12 -84 -24z m-333 -319 c-3 -8 -6 -5 -6 6 -1 11 2 17 5 13 3 -3 4 -12
1 -19z m83 -583 c0 -5 -5 -3 -10 5 -5 8 -10 20 -10 25 0 6 5 3 10 -5 5 -8 10
-19 10 -25z"/>
<path d="M1063 2388 c-2 -18 0 -20 7 -8 12 18 13 30 2 30 -4 0 -9 -10 -9 -22z"/>
<path d="M1026 2381 c-4 -5 -2 -12 3 -15 5 -4 12 -2 15 3 4 5 2 12 -3 15 -5 4
-12 2 -15 -3z"/>
<path d="M759 2330 c-49 -33 -123 -96 -99 -84 8 4 24 15 35 25 11 9 45 33 75
53 30 20 50 36 44 36 -6 0 -30 -13 -55 -30z"/>
<path d="M410 2095 c-8 -9 -8 -15 -2 -15 12 0 26 19 19 26 -2 2 -10 -2 -17
-11z"/>
<path d="M635 1191 c-3 -5 -2 -12 3 -15 5 -3 9 1 9 9 0 17 -3 19 -12 6z"/>
<path d="M1777 2589 c-63 -15 -296 -118 -269 -119 7 0 32 9 55 21 80 39 210
89 233 89 12 0 26 5 29 10 7 11 4 11 -48 -1z"/>
<path d="M1370 2570 c0 -5 5 -10 10 -10 6 0 10 5 10 10 0 6 -4 10 -10 10 -5 0
-10 -4 -10 -10z"/>
<path d="M1875 2573 c-59 -13 -189 -59 -253 -89 -79 -37 -86 -39 -78 -25 4 5
-3 7 -14 4 -10 -3 -29 -25 -41 -49 -22 -47 -35 -58 -26 -23 3 13 2 18 -3 13
-10 -11 -16 -76 -8 -89 3 -6 9 -27 13 -48 10 -52 26 -47 19 6 -9 62 19 153 49
163 12 3 40 14 62 24 96 41 175 71 250 94 70 21 87 32 30 19z"/>
<path d="M1316 2535 c4 -8 10 -12 15 -9 14 8 10 24 -6 24 -9 0 -12 -6 -9 -15z"/>
<path d="M1785 2495 c-22 -7 -31 -13 -20 -13 11 0 36 6 55 13 45 17 17 18 -35
0z"/>
<path d="M1255 2490 c-3 -5 1 -10 10 -10 9 0 13 5 10 10 -3 6 -8 10 -10 10 -2
0 -7 -4 -10 -10z"/>
<path d="M1200 2430 c0 -5 5 -10 10 -10 6 0 10 5 10 10 0 6 -4 10 -10 10 -5 0
-10 -4 -10 -10z"/>
<path d="M1388 2392 c-19 -21 -39 -37 -45 -35 -13 5 -146 -57 -140 -64 3 -2
32 9 66 26 76 39 88 39 61 1 -12 -16 -17 -30 -11 -30 5 0 18 12 28 26 10 15
35 45 56 67 20 22 37 42 37 44 0 12 -23 -3 -52 -35z"/>
<path d="M1155 2370 c-3 -5 -1 -10 4 -10 6 0 11 5 11 10 0 6 -2 10 -4 10 -3 0
-8 -4 -11 -10z"/>
<path d="M1408 2313 c7 -3 16 -2 19 1 4 3 -2 6 -13 5 -11 0 -14 -3 -6 -6z"/>
<path d="M1151 1864 c0 -11 3 -14 6 -6 3 7 2 16 -1 19 -3 4 -6 -2 -5 -13z"/>
<path d="M2522 1508 c-18 -35 -43 -111 -38 -115 6 -6 34 48 51 98 15 42 6 53
-13 17z"/>
<path d="M2301 2384 c0 -11 3 -14 6 -6 3 7 2 16 -1 19 -3 4 -6 -2 -5 -13z"/>
<path d="M2195 2303 c15 -32 25 -42 25 -24 0 5 -9 19 -20 32 l-21 24 16 -32z"/>
<path d="M1930 2271 c0 -41 13 -61 26 -40 4 8 11 3 20 -12 13 -24 13 -24 11
-1 -1 12 -5 22 -10 22 -5 0 -7 6 -4 13 2 6 1 21 -4 32 -6 17 -8 17 -8 3 -1
-10 -6 -18 -12 -18 -6 0 -9 7 -6 15 4 8 2 17 -3 20 -6 4 -10 -11 -10 -34z m30
-21 c0 -5 -2 -10 -4 -10 -3 0 -8 5 -11 10 -3 6 -1 10 4 10 6 0 11 -4 11 -10z"/>
<path d="M1759 2263 c-1 -33 -2 -35 -8 -13 -11 38 -22 -116 -12 -165 8 -35 9
-30 11 45 l3 85 6 -82 c6 -76 14 -103 26 -92 2 3 0 34 -6 69 -7 45 -7 66 0 68
15 5 14 82 0 82 -6 0 -9 7 -6 15 4 8 2 17 -3 20 -6 4 -10 -10 -11 -32z m18
-35 c-3 -8 -6 -5 -6 6 -1 11 2 17 5 13 3 -3 4 -12 1 -19z"/>
<path d="M2011 2288 c-1 -9 -3 -23 -6 -31 -4 -8 0 -14 10 -14 17 0 18 12 5 42
-7 16 -9 17 -9 3z"/>
<path d="M2041 2284 c0 -11 3 -14 6 -6 3 7 2 16 -1 19 -3 4 -6 -2 -5 -13z"/>
<path d="M1832 2265 c0 -16 2 -22 5 -12 2 9 2 23 0 30 -3 6 -5 -1 -5 -18z"/>
<path d="M1863 2245 c0 -27 2 -38 4 -22 2 15 2 37 0 50 -2 12 -4 0 -4 -28z"/>
<path d="M2170 2279 c0 -17 26 -57 33 -49 2 3 -4 19 -14 35 -11 17 -19 23 -19
14z"/>
<path d="M1802 2250 c0 -19 2 -27 5 -17 2 9 2 25 0 35 -3 9 -5 1 -5 -18z"/>
<path d="M1880 2261 c0 -5 7 -11 15 -15 9 -3 15 0 15 9 0 8 -7 15 -15 15 -8 0
-15 -4 -15 -9z"/>
<path d="M2050 2251 c0 -6 4 -13 10 -16 6 -3 7 1 4 9 -7 18 -14 21 -14 7z"/>
<path d="M1717 2233 c-4 -3 -7 -11 -7 -17 0 -6 5 -5 12 2 6 6 9 14 7 17 -3 3
-9 2 -12 -2z"/>
<path d="M2130 2220 c6 -11 13 -20 16 -20 2 0 0 9 -6 20 -6 11 -13 20 -16 20
-2 0 0 -9 6 -20z"/>
<path d="M2007 2209 c4 -13 8 -18 11 -10 2 7 -1 18 -6 23 -8 8 -9 4 -5 -13z"/>
<path d="M2161 2225 c0 -5 3 -16 8 -23 7 -11 9 -10 14 3 4 9 3 14 -2 10 -5 -3
-12 1 -14 7 -3 7 -6 9 -6 3z"/>
<path d="M1832 2195 c0 -16 4 -41 8 -55 8 -24 8 -24 8 5 0 17 -4 41 -8 55 -8
24 -8 24 -8 -5z"/>
<path d="M2068 2190 c2 -16 9 -30 14 -30 5 0 6 10 3 23 -11 35 -22 40 -17 7z"/>
<path d="M1946 2192 c-3 -6 -1 -14 5 -17 15 -10 25 3 12 16 -7 7 -13 7 -17 1z"/>
<path d="M1871 2137 c-1 -36 -5 -56 -11 -52 -5 3 -10 -2 -11 -12 0 -12 -5 -9
-14 12 -11 23 -14 26 -15 10 0 -17 -2 -18 -11 -5 -7 10 -9 11 -7 2 2 -8 8 -14
13 -14 6 0 16 -9 23 -19 7 -11 17 -19 22 -19 16 0 33 103 21 130 -8 21 -10 16
-10 -33z"/>
<path d="M1911 2174 c0 -11 3 -14 6 -6 3 7 2 16 -1 19 -3 4 -6 -2 -5 -13z"/>
<path d="M2480 2182 c0 -5 7 -15 15 -22 8 -7 15 -8 15 -2 0 5 -7 15 -15 22 -8
7 -15 8 -15 2z"/>
<path d="M1690 2165 c0 -9 6 -12 15 -9 8 4 15 10 15 15 0 5 -7 9 -15 9 -8 0
-15 -7 -15 -15z"/>
<path d="M1990 2161 c0 -12 4 -21 10 -21 5 0 7 -6 4 -14 -9 -23 9 -47 26 -36
10 7 11 10 3 10 -7 0 -13 11 -13 25 0 14 -5 25 -11 25 -5 0 -8 4 -4 9 3 5 1
12 -5 16 -5 3 -10 -3 -10 -14z"/>
<path d="M1812 2150 c0 -14 2 -19 5 -12 2 6 2 18 0 25 -3 6 -5 1 -5 -13z"/>
<path d="M1791 2144 c0 -11 3 -14 6 -6 3 7 2 16 -1 19 -3 4 -6 -2 -5 -13z"/>
<path d="M1955 2118 c0 -37 3 -43 21 -43 16 0 19 4 13 15 -4 8 -10 27 -14 43
-8 41 -20 32 -20 -15z"/>
<path d="M2056 2147 c3 -10 9 -15 12 -12 3 3 0 11 -7 18 -10 9 -11 8 -5 -6z"/>
<path d="M1916 2128 c3 -13 11 -30 16 -38 8 -12 8 -11 4 3 -3 10 -6 27 -6 38
0 10 -5 19 -11 19 -6 0 -8 -9 -3 -22z"/>
<path d="M1690 2124 c0 -8 5 -12 10 -9 6 4 8 11 5 16 -9 14 -15 11 -15 -7z"/>
<path d="M2226 2103 c5 -5 12 -12 16 -18 4 -6 8 -2 8 8 0 9 -7 17 -17 17 -9 0
-12 -3 -7 -7z"/>
<path d="M1891 2090 c-1 -23 15 -45 23 -31 4 6 3 11 -3 11 -5 0 -12 8 -14 18
-3 12 -5 13 -6 2z"/>
<path d="M2050 2090 c0 -5 5 -10 11 -10 5 0 7 5 4 10 -3 6 -8 10 -11 10 -2 0
-4 -4 -4 -10z"/>
<path d="M2073 2067 c-7 -14 -8 -30 -3 -38 7 -11 10 -10 15 3 4 10 4 22 0 28
-4 6 -3 9 2 8 4 -2 9 1 11 7 7 21 -15 14 -25 -8z"/>
<path d="M2180 2074 c0 -8 5 -12 10 -9 6 3 10 10 10 16 0 5 -4 9 -10 9 -5 0
-10 -7 -10 -16z"/>
<path d="M2150 1989 c-41 -4 -115 -20 -165 -35 -49 -14 -100 -29 -113 -31 -17
-4 -20 -8 -12 -18 9 -11 19 -10 53 5 28 13 54 17 78 14 22 -4 74 3 130 16 72
17 239 37 332 40 4 0 7 5 7 10 0 12 -198 11 -310 -1z"/>
<path d="M2396 1962 c-3 -5 8 -6 25 -4 16 2 29 6 29 8 0 8 -49 4 -54 -4z"/>
<path d="M2130 1847 c0 -13 -5 -28 -12 -35 -9 -9 -9 -15 0 -24 16 -16 20 -10
28 40 4 28 3 42 -5 42 -6 0 -11 -10 -11 -23z"/>
<path d="M1927 1812 c-2 -9 -8 -25 -12 -34 -4 -11 -3 -18 4 -18 6 0 11 8 11
18 0 10 5 23 11 29 7 7 7 13 1 17 -5 3 -12 -2 -15 -12z"/>
<path d="M1956 1805 c-18 -27 -20 -35 -8 -35 4 0 16 14 25 30 22 36 6 41 -17
5z"/>
<path d="M2090 1820 c0 -5 5 -10 10 -10 6 0 10 5 10 10 0 6 -4 10 -10 10 -5 0
-10 -4 -10 -10z"/>
<path d="M1884 1785 c-16 -40 -17 -45 -6 -45 4 0 13 18 19 40 13 49 7 52 -13
5z"/>
<path d="M1826 1755 c-10 -25 -22 -45 -28 -45 -10 0 -8 17 7 53 5 13 2 17 -14
17 -12 0 -21 -6 -21 -14 0 -8 -5 -18 -11 -22 -8 -4 -9 0 -4 15 3 11 2 21 -3
21 -5 0 -13 -17 -17 -37 -6 -32 -9 -35 -15 -18 -7 15 -9 16 -9 4 -1 -9 -8 -32
-17 -50 l-15 -34 5 33 c3 18 1 32 -4 32 -6 0 -10 -5 -10 -11 0 -6 -7 -9 -15
-6 -8 4 -17 1 -21 -5 -4 -7 -3 -8 4 -4 8 4 12 0 12 -11 0 -15 2 -16 10 -3 5 8
10 10 10 4 0 -5 -7 -19 -15 -30 -11 -14 -14 -15 -9 -3 3 10 1 20 -5 24 -12 7
-15 -23 -5 -49 7 -18 34 -10 34 10 0 8 5 14 10 14 13 0 12 -10 -5 -40 -16 -29
-19 -60 -6 -60 5 0 12 10 14 23 2 12 5 -13 6 -55 0 -43 3 -78 5 -78 3 0 16 4
30 9 17 7 27 6 35 -3 6 -7 9 -15 7 -17 -2 -2 5 -5 17 -6 12 -1 48 -6 81 -12
48 -8 63 -7 82 5 12 9 31 14 42 12 27 -4 52 20 52 52 0 16 5 30 11 32 16 5 23
120 10 161 -24 72 -89 107 -152 80 -19 -8 -44 -11 -57 -8 -21 5 -22 7 -7 28
17 24 19 37 6 37 -4 0 -16 -20 -25 -45z m21 -31 c-3 -3 -12 -4 -19 -1 -8 3 -5
6 6 6 11 1 17 -2 13 -5z m114 -27 c-8 -8 -11 -8 -11 1 0 7 -7 12 -15 12 -8 0
-14 -3 -14 -7 1 -5 1 -15 0 -23 -1 -13 -2 -13 -11 0 -7 11 -10 11 -10 2 0 -7
-5 -10 -10 -7 -6 4 -17 -9 -25 -27 -16 -38 -20 -24 -5 19 l10 28 -20 -24 c-12
-13 -19 -30 -16 -37 3 -7 1 -16 -4 -19 -6 -4 -11 -18 -11 -33 -1 -18 -3 -21
-6 -9 -3 10 -1 26 3 35 4 9 8 28 9 42 1 14 3 28 4 32 2 13 43 30 90 37 46 7
63 -1 42 -22z m-1 -92 c-14 -51 -18 -58 -13 -25 4 25 7 56 7 70 1 23 18 48 23
32 2 -4 -6 -38 -17 -77z m30 -6 c-7 -27 -14 -48 -17 -45 -3 2 1 30 8 62 7 31
15 52 17 45 2 -6 -2 -34 -8 -62z m-210 16 c-7 -8 -16 -15 -21 -15 -11 0 1 33
15 42 16 11 20 -10 6 -27z m127 13 c-3 -8 -6 -5 -6 6 -1 11 2 17 5 13 3 -3 4
-12 1 -19z m-167 -3 c-6 -8 -9 -19 -6 -24 4 -5 2 -13 -4 -16 -8 -5 -7 -12 2
-23 11 -13 11 -14 0 -8 -10 6 -13 3 -12 -10 4 -38 0 -64 -11 -64 -16 0 -3 108
17 137 8 13 17 23 20 23 4 0 1 -7 -6 -15z m137 -32 c-3 -10 -5 -4 -5 12 0 17
2 24 5 18 2 -7 2 -21 0 -30z m20 -15 c-3 -8 -6 -5 -6 6 -1 11 2 17 5 13 3 -3
4 -12 1 -19z m-140 -25 c-3 -10 -5 -4 -5 12 0 17 2 24 5 18 2 -7 2 -21 0 -30z
m130 -35 c-3 -7 -5 -2 -5 12 0 14 2 19 5 13 2 -7 2 -19 0 -25z m-140 -20 c-3
-7 -5 -2 -5 12 0 14 2 19 5 13 2 -7 2 -19 0 -25z m216 -21 c7 4 5 -2 -3 -13
-20 -25 -32 -34 -49 -34 -10 0 -8 6 7 20 12 12 23 28 23 38 1 15 2 15 6 -1 3
-10 9 -14 16 -10z m-150 -30 c4 3 7 1 7 -5 0 -14 -2 -14 -24 -6 -9 3 -16 11
-16 16 0 7 5 6 13 -1 8 -6 17 -8 20 -4z m77 -17 c0 -5 -12 -10 -27 -9 -25 0
-26 1 -8 9 27 12 35 12 35 0z"/>
<path d="M1095 1410 c3 -5 10 -10 16 -10 5 0 9 5 9 10 0 6 -7 10 -16 10 -8 0
-12 -4 -9 -10z"/>
<path d="M1085 1330 c3 -5 10 -10 16 -10 5 0 9 5 9 10 0 6 -7 10 -16 10 -8 0
-12 -4 -9 -10z"/>
<path d="M1945 1330 c3 -5 8 -10 11 -10 2 0 4 5 4 10 0 6 -5 10 -11 10 -5 0
-7 -4 -4 -10z"/>
<path d="M1806 1294 c-3 -9 1 -25 9 -37 8 -12 15 -31 15 -43 0 -27 50 -56 71
-43 9 6 10 9 2 9 -8 0 -9 18 -6 61 6 56 4 61 -13 57 -14 -3 -19 -12 -18 -36 1
-17 -2 -29 -7 -26 -5 3 -9 18 -9 34 0 16 -7 30 -16 34 -21 8 -21 8 -28 -10z"/>
<path d="M1945 1273 c3 -16 13 -35 22 -43 14 -13 15 -13 8 5 -4 11 -10 30 -12
43 -3 12 -10 22 -15 22 -6 0 -7 -11 -3 -27z"/>
<path d="M1067 1260 c-26 -16 -47 -34 -47 -40 0 -14 7 -13 32 9 13 11 34 29
48 40 36 30 21 26 -33 -9z"/>
<path d="M2135 939 c-4 -6 -5 -13 -2 -16 7 -7 27 6 27 18 0 12 -17 12 -25 -2z"/>
<path d="M2235 738 c-7 -15 -17 -22 -30 -20 -15 3 -17 1 -7 -11 6 -7 9 -17 5
-20 -14 -15 -23 -6 -23 23 0 25 -3 28 -13 19 -7 -7 -11 -25 -9 -40 3 -20 8
-25 23 -22 11 3 26 0 34 -7 16 -13 19 -8 15 25 -1 16 1 18 11 8 17 -17 29 -16
29 2 0 8 -6 14 -12 13 -8 -2 -12 7 -10 25 4 33 0 34 -13 5z"/>
<path d="M2080 743 c0 -5 7 -17 15 -27 15 -20 20 -10 9 18 -6 16 -24 22 -24 9z"/>
<path d="M2261 654 c0 -11 3 -14 6 -6 3 7 2 16 -1 19 -3 4 -6 -2 -5 -13z"/>
</g>
</svg>
